<!DOCTYPE svg PUBLIC "-//W3C//DTD SVG 1.1//EN" "http://www.w3.org/Graphics/SVG/1.1/DTD/svg11.dtd">
<!-- Uploaded to: SVG Repo, www.svgrepo.com, Transformed by: SVG Repo Mixer Tools -->
<svg height="800px" width="800px" version="1.1" id="Layer_1" xmlns="http://www.w3.org/2000/svg" xmlns:xlink="http://www.w3.org/1999/xlink" viewBox="-153.6 -153.6 819.20 819.20" xml:space="preserve" fill="#000000">
<g id="SVGRepo_bgCarrier" stroke-width="0">
<rect x="-153.6" y="-153.6" width="819.20" height="819.20" rx="409.6" fill="#e7ad0d" strokewidth="0"/>
</g>
<g id="SVGRepo_tracerCarrier" stroke-linecap="round" stroke-linejoin="round"/>
<g id="SVGRepo_iconCarrier"> <circle style="fill:#F2F2F2;" cx="256.001" cy="256.001" r="256.001"/> <circle style="fill:#E6E6E6;" cx="256.001" cy="256.001" r="165.322"/> <g> <path style="fill:#F4C67D;" d="M418.59,93.411h-44.004c-98.768,0-178.835,80.068-178.835,178.835v44.004h44.004 c98.768,0,178.835-80.068,178.835-178.835V93.411z"/> <path style="fill:#F4C67D;" d="M275.992,123.036c0,0-74.947-0.308-122.49,47.234c0,0,39.464,4.753,59.653,24.941"/> </g> <g> <path style="fill:#E0B16E;" d="M406.385,93.411h-31.798c-98.767,0-178.835,80.068-178.835,178.835v44.004h31.798v-44.004 C227.551,173.479,307.617,93.411,406.385,93.411z"/> <path style="fill:#E0B16E;" d="M203.245,308.754v44.006c0,34.311-9.657,66.355-26.422,93.571l-0.001-0.005 c-9.218-57.139-54.016-101.94-111.154-111.162l0,0c27.216-16.752,59.26-26.409,93.571-26.409H203.245z"/> </g> <circle style="fill:#4D4D4D;" cx="332.35" cy="154.16" r="14.857"/> </g>
</svg>